<svg xmlns="http://www.w3.org/2000/svg" x="0" y="0" version="1.1" viewBox="0 0 628 614"><path d="M100 446c-7 12-12 30-12 42v10L5 354c-3-4-5-11-5-17s2-13 5-18l40-70-45-26 146-3 71 128-46-26-71 124zm64-406c13-22 34-34 59-34 27 0 49 13 64 39l23 38-79 137-128-75 61-105zm9 522c-38 0-69-32-69-70 0-10 4-29 11-40l22-38h158v148H173zM301 36a82 82 0 00-40-36h165c15 0 26 6 33 17l41 70 44-26-71 127-145-2 44-25-71-125zm254 379c20 0 36-5 50-16l-83 145c-6 11-18 18-32 18h-79v52l-75-126 75-125v52h144zm64-120c6 10 9 22 9 34 0 24-15 49-37 61-10 6-24 9-38 9h-44l-79-136 128-73 61 105z"/></svg>
